<svg width="493" height="129" viewBox="0 0 493 129" fill="none" xmlns="http://www.w3.org/2000/svg">
<g filter="url(#filter0_d)">
<path d="M83.616 85.192C86.112 87.016 87.36 89.896 87.36 93.832C87.36 97.672 86.496 100.984 84.768 103.768C83.136 106.456 80.688 108.856 77.424 110.968C70.416 115.48 60.768 117.736 48.48 117.736C36.288 117.736 26.832 114.568 20.112 108.232C13.488 101.8 10.176 92.92 10.176 81.592C10.176 65.56 14.352 51.448 22.704 39.256C29.04 30.232 37.872 23.8 49.2 19.96C55.056 18.04 60.864 17.08 66.624 17.08C72.384 17.08 77.04 17.464 80.592 18.232C84.144 19 87.264 20.152 89.952 21.688C95.808 25.048 98.736 29.416 98.736 34.792C98.736 39.688 96.432 43.96 91.824 47.608C87.6 50.872 83.76 52.504 80.304 52.504C76.848 52.504 74.4 52.264 72.96 51.784C73.344 48.328 73.536 45.496 73.536 43.288C73.536 40.984 73.488 39.016 73.392 37.384C73.296 35.752 73.008 34.168 72.528 32.632C71.568 29.08 69.6 27.304 66.624 27.304C63.744 27.304 60.816 28.696 57.84 31.48C54.96 34.168 52.272 37.816 49.776 42.424C44.112 52.888 41.28 64.312 41.28 76.696C41.28 82.648 42.96 87.352 46.32 90.808C49.68 94.168 54.96 95.848 62.16 95.848C67.536 95.848 72.768 94.072 77.856 90.52C80.064 88.984 81.984 87.208 83.616 85.192ZM171.724 99.016C171.724 103.24 173.884 105.976 178.204 107.224C177.148 110.776 174.556 113.512 170.428 115.432C166.972 117.064 163.324 117.88 159.484 117.88C155.74 117.88 152.86 117.352 150.844 116.296C148.924 115.336 147.436 114.04 146.38 112.408C144.652 109.912 143.788 106.312 143.788 101.608C143.788 98.824 144.556 93.592 146.092 85.912L148.108 74.968C149.74 66.616 150.556 60.904 150.556 57.832C150.556 52.456 149.068 49.768 146.092 49.768C142.348 49.768 139.276 52.504 136.876 57.976C135.916 60.088 135.1 62.728 134.428 65.896L124.636 115L95.6917 117.88L115.996 14.2L144.94 11.32L143.788 17.08C141.1 31.864 138.604 41.752 136.3 46.744C141.676 41.368 149.308 38.68 159.196 38.68C169.66 38.68 175.852 42.136 177.772 49.048C178.444 51.256 178.78 53.32 178.78 55.24C178.78 57.16 178.684 58.888 178.492 60.424C178.396 61.864 178.108 63.928 177.628 66.616L175.756 76.984L172.444 93.256C171.964 95.464 171.724 97.384 171.724 99.016ZM248.174 90.664C250.574 92.296 251.774 94.936 251.774 98.584C251.774 102.136 250.862 105.064 249.038 107.368C247.214 109.672 244.814 111.592 241.838 113.128C235.694 116.296 229.31 117.88 222.686 117.88C216.062 117.88 210.782 117.16 206.846 115.72C203.006 114.28 199.79 112.216 197.198 109.528C192.11 104.44 189.566 97.24 189.566 87.928C189.566 73.432 193.502 61.768 201.374 52.936C209.822 43.432 221.39 38.68 236.078 38.68C245.198 38.68 252.014 40.6 256.526 44.44C259.886 47.32 261.566 51.112 261.566 55.816C261.566 72.712 246.974 81.16 217.79 81.16C217.406 83.656 217.214 85.96 217.214 88.072C217.214 92.488 218.174 95.56 220.094 97.288C222.11 98.92 224.942 99.736 228.59 99.736C232.238 99.736 235.982 98.92 239.822 97.288C243.758 95.56 246.542 93.352 248.174 90.664ZM218.798 74.968C225.614 74.968 230.99 72.856 234.926 68.632C238.862 64.6 240.83 59.368 240.83 52.936C240.83 50.728 240.398 49.048 239.534 47.896C238.766 46.648 237.566 46.024 235.934 46.024C234.302 46.024 232.766 46.36 231.326 47.032C229.982 47.608 228.59 48.952 227.15 51.064C223.598 55.864 220.814 63.832 218.798 74.968ZM324.815 90.664C327.215 92.296 328.415 94.936 328.415 98.584C328.415 102.136 327.503 105.064 325.679 107.368C323.855 109.672 321.455 111.592 318.479 113.128C312.335 116.296 305.951 117.88 299.327 117.88C292.703 117.88 287.423 117.16 283.487 115.72C279.647 114.28 276.431 112.216 273.839 109.528C268.751 104.44 266.207 97.24 266.207 87.928C266.207 73.432 270.143 61.768 278.015 52.936C286.463 43.432 298.031 38.68 312.719 38.68C321.839 38.68 328.655 40.6 333.167 44.44C336.527 47.32 338.207 51.112 338.207 55.816C338.207 72.712 323.615 81.16 294.431 81.16C294.047 83.656 293.855 85.96 293.855 88.072C293.855 92.488 294.815 95.56 296.735 97.288C298.751 98.92 301.583 99.736 305.231 99.736C308.879 99.736 312.623 98.92 316.463 97.288C320.399 95.56 323.183 93.352 324.815 90.664ZM295.439 74.968C302.255 74.968 307.631 72.856 311.567 68.632C315.503 64.6 317.471 59.368 317.471 52.936C317.471 50.728 317.039 49.048 316.175 47.896C315.407 46.648 314.207 46.024 312.575 46.024C310.943 46.024 309.407 46.36 307.967 47.032C306.623 47.608 305.231 48.952 303.791 51.064C300.239 55.864 297.455 63.832 295.439 74.968ZM388.208 74.536C391.664 68.392 393.392 62.2 393.392 55.96C393.392 51.832 391.904 49.768 388.928 49.768C386.624 49.768 384.272 51.736 381.872 55.672C379.376 59.608 377.744 64.12 376.976 69.208L369.488 115L339.679 117.88L354.368 41.56L378.128 38.68L375.536 53.224C380.24 43.528 387.872 38.68 398.432 38.68C404 38.68 408.272 40.12 411.248 43C414.32 45.88 415.856 50.296 415.856 56.248C415.856 62.104 413.888 66.904 409.952 70.648C406.112 74.392 400.88 76.264 394.256 76.264C391.376 76.264 389.36 75.688 388.208 74.536ZM461.285 64.456C462.629 60.904 463.301 57.592 463.301 54.52C463.301 48.856 460.997 46.024 456.389 46.024C453.989 46.024 451.781 47.128 449.765 49.336C447.845 51.448 446.885 53.848 446.885 56.536C446.885 58.456 447.653 60.184 449.189 61.72C451.397 63.832 455.333 66.616 460.997 70.072C466.661 73.528 470.549 76.696 472.661 79.576C474.869 82.36 475.973 85.72 475.973 89.656C475.973 93.496 475.013 97.192 473.093 100.744C471.269 104.296 468.677 107.32 465.317 109.816C458.117 115.192 448.757 117.88 437.237 117.88C430.997 117.88 425.477 116.248 420.677 112.984C415.877 109.816 413.477 106.36 413.477 102.616C413.477 98.872 414.821 95.896 417.509 93.688C420.293 91.48 423.701 90.376 427.733 90.376C431.765 90.376 435.029 91.144 437.525 92.68C436.277 95.848 435.653 98.488 435.653 100.6C435.653 106.936 438.341 110.104 443.717 110.104C446.021 110.104 447.941 109.384 449.477 107.944C451.013 106.504 451.781 104.536 451.781 102.04C451.781 97.144 447.653 92.104 439.397 86.92C432.677 82.504 428.549 79.432 427.013 77.704C424.421 74.632 423.125 71.176 423.125 67.336C423.125 63.496 424.037 59.752 425.861 56.104C427.685 52.456 430.277 49.336 433.637 46.744C440.645 41.368 450.245 38.68 462.437 38.68C468.677 38.68 473.621 39.928 477.269 42.424C481.013 44.92 482.885 48.28 482.885 52.504C482.885 56.728 481.589 60.04 478.997 62.44C476.501 64.84 472.949 66.04 468.341 66.04C465.173 66.04 462.821 65.512 461.285 64.456Z" fill="#FF542F"/>
<path d="M83.616 85.192L85.3861 82.7698L83.0808 81.0852L81.2843 83.3044L83.616 85.192ZM84.768 103.768L82.2191 102.186L82.2113 102.198L82.2036 102.211L84.768 103.768ZM77.424 110.968L79.048 113.49L79.0538 113.487L77.424 110.968ZM20.112 108.232L18.0221 110.384L18.0379 110.4L18.054 110.415L20.112 108.232ZM22.704 39.256L20.2488 37.5321L20.2388 37.5463L20.229 37.5605L22.704 39.256ZM49.2 19.96L48.2654 17.1093L48.2511 17.114L48.2369 17.1188L49.2 19.96ZM80.592 18.232L81.226 15.2998V15.2997L80.592 18.232ZM89.952 21.688L91.445 19.0859L91.4404 19.0833L89.952 21.688ZM91.824 47.608L93.6583 49.9818L93.6723 49.9711L93.6861 49.9601L91.824 47.608ZM72.96 51.784L69.9784 51.4527L69.7105 53.8631L72.0113 54.63L72.96 51.784ZM73.392 37.384L76.3868 37.2078V37.2078L73.392 37.384ZM72.528 32.632L69.6319 33.4147L69.6471 33.4711L69.6646 33.5268L72.528 32.632ZM57.84 31.48L59.887 33.6732L59.8895 33.6708L57.84 31.48ZM49.776 42.424L47.1381 40.9952L47.1377 40.9959L49.776 42.424ZM46.32 90.808L44.169 92.8992L44.1837 92.9144L44.1987 92.9293L46.32 90.808ZM77.856 90.52L76.1428 88.0573L76.1387 88.0601L77.856 90.52ZM81.846 87.6142C83.3616 88.7217 84.36 90.5637 84.36 93.832H90.36C90.36 89.2283 88.8624 85.3103 85.3861 82.7698L81.846 87.6142ZM84.36 93.832C84.36 97.2105 83.6047 99.9535 82.2191 102.186L87.3169 105.35C89.3873 102.014 90.36 98.1335 90.36 93.832H84.36ZM82.2036 102.211C80.8555 104.432 78.766 106.526 75.7943 108.449L79.0538 113.487C82.61 111.186 85.4165 108.48 87.3324 105.325L82.2036 102.211ZM75.8 108.446C69.4547 112.531 60.4492 114.736 48.48 114.736V120.736C61.0868 120.736 71.3773 118.429 79.048 113.49L75.8 108.446ZM48.48 114.736C36.8015 114.736 28.1739 111.71 22.17 106.049L18.054 110.415C25.4901 117.426 35.7745 120.736 48.48 120.736V114.736ZM22.2019 106.08C16.287 100.336 13.176 92.3055 13.176 81.592H7.176C7.176 93.5345 10.689 103.264 18.0221 110.384L22.2019 106.08ZM13.176 81.592C13.176 66.1113 17.1982 52.6016 25.179 40.9514L20.229 37.5605C11.5058 50.2944 7.176 65.0087 7.176 81.592H13.176ZM25.1592 40.9799C31.0976 32.5222 39.3845 26.455 50.1631 22.8012L48.2369 17.1188C36.3595 21.145 26.9824 27.9418 20.2488 37.5321L25.1592 40.9799ZM50.1347 22.8107C55.7101 20.9827 61.203 20.08 66.624 20.08V14.08C60.525 14.08 54.4019 15.0973 48.2654 17.1093L50.1347 22.8107ZM66.624 20.08C72.2791 20.08 76.6986 20.4595 79.958 21.1642L81.226 15.2997C77.3814 14.4685 72.4889 14.08 66.624 14.08V20.08ZM79.958 21.1642C83.2609 21.8784 86.0836 22.9327 88.4636 24.2927L91.4404 19.0833C88.4444 17.3713 85.0271 16.1216 81.226 15.2998L79.958 21.1642ZM88.459 24.2901C93.6605 27.2746 95.736 30.7765 95.736 34.792H101.736C101.736 28.0555 97.9555 22.8214 91.445 19.0859L88.459 24.2901ZM95.736 34.792C95.736 38.5846 94.0115 42.0499 89.9619 45.2559L93.6861 49.9601C98.8525 45.8701 101.736 40.7914 101.736 34.792H95.736ZM89.9897 45.2341C86.0213 48.3006 82.8211 49.504 80.304 49.504V55.504C84.6989 55.504 89.1787 53.4434 93.6583 49.9818L89.9897 45.2341ZM80.304 49.504C76.8649 49.504 74.8474 49.2509 73.9087 48.938L72.0113 54.63C73.9526 55.2771 76.8311 55.504 80.304 55.504V49.504ZM75.9417 52.1153C76.3318 48.604 76.536 45.6507 76.536 43.288H70.536C70.536 45.3413 70.3562 48.052 69.9784 51.4527L75.9417 52.1153ZM76.536 43.288C76.536 40.9469 76.4874 38.9167 76.3868 37.2078L70.3972 37.5602C70.4887 39.1153 70.536 41.0211 70.536 43.288H76.536ZM76.3868 37.2078C76.2767 35.3357 75.9455 33.5102 75.3914 31.7372L69.6646 33.5268C70.0705 34.8258 70.3153 36.1683 70.3972 37.5602L76.3868 37.2078ZM75.4241 31.8493C74.8499 29.7246 73.8899 27.8058 72.3419 26.4088C70.738 24.9614 68.7566 24.304 66.624 24.304V30.304C67.4674 30.304 67.958 30.5346 68.3221 30.8632C68.7421 31.2422 69.2462 31.9874 69.6319 33.4147L75.4241 31.8493ZM66.624 24.304C62.7168 24.304 59.0915 26.2012 55.7905 29.2892L59.8895 33.6708C62.5405 31.1908 64.7712 30.304 66.624 30.304V24.304ZM55.793 29.2868C52.6124 32.2554 49.7407 36.1903 47.1381 40.9952L52.4139 43.8528C54.8033 39.4417 57.3076 36.0806 59.887 33.6732L55.793 29.2868ZM47.1377 40.9959C41.2265 51.9167 38.28 63.8344 38.28 76.696H44.28C44.28 64.7896 46.9975 53.8593 52.4143 43.8521L47.1377 40.9959ZM38.28 76.696C38.28 83.2354 40.1431 88.7582 44.169 92.8992L48.471 88.7168C45.7769 85.9457 44.28 82.0606 44.28 76.696H38.28ZM44.1987 92.9293C48.3537 97.0843 54.5678 98.848 62.16 98.848V92.848C55.3522 92.848 51.0063 91.2517 48.4413 88.6867L44.1987 92.9293ZM62.16 98.848C68.2412 98.848 74.0618 96.8275 79.5733 92.9799L76.1387 88.0601C71.4742 91.3165 66.8308 92.848 62.16 92.848V98.848ZM79.5692 92.9827C82.0008 91.2911 84.1312 89.3235 85.9477 87.0796L81.2843 83.3044C79.8368 85.0925 78.1272 86.6768 76.1428 88.0573L79.5692 92.9827ZM178.204 107.224L181.079 108.079L181.941 105.181L179.036 104.342L178.204 107.224ZM170.428 115.432L169.163 112.712L169.155 112.716L169.147 112.719L170.428 115.432ZM150.844 116.296L152.236 113.639L152.211 113.625L152.185 113.613L150.844 116.296ZM146.38 112.408L148.898 110.778L148.873 110.739L148.846 110.7L146.38 112.408ZM146.092 85.912L149.033 86.5004L149.038 86.478L149.042 86.4555L146.092 85.912ZM148.108 74.968L145.163 74.3927L145.16 74.4086L145.157 74.4245L148.108 74.968ZM136.876 57.976L139.607 59.2174L139.615 59.1992L139.623 59.181L136.876 57.976ZM134.428 65.896L131.493 65.2735L131.489 65.2914L131.486 65.3093L134.428 65.896ZM124.636 115L124.933 117.985L127.143 117.765L127.578 115.587L124.636 115ZM95.6917 117.88L92.7477 117.303L91.9719 121.265L95.9888 120.865L95.6917 117.88ZM115.996 14.2L115.699 11.2147L113.48 11.4355L113.052 13.6234L115.996 14.2ZM144.94 11.32L147.882 11.9083L148.676 7.93337L144.643 8.33474L144.94 11.32ZM143.788 17.08L140.846 16.4916L140.841 16.5175L140.836 16.5433L143.788 17.08ZM136.3 46.744L133.576 45.4868L138.421 48.8653L136.3 46.744ZM177.772 49.048L174.881 49.8509L174.891 49.8863L174.902 49.9215L177.772 49.048ZM178.492 60.424L175.515 60.0519L175.504 60.1379L175.498 60.2244L178.492 60.424ZM177.628 66.616L180.58 67.149L180.581 67.1434L177.628 66.616ZM175.756 76.984L178.695 77.5824L178.702 77.5498L178.708 77.5171L175.756 76.984ZM172.444 93.256L175.375 93.8933L175.38 93.8738L175.383 93.8543L172.444 93.256ZM168.724 99.016C168.724 101.655 169.408 104.092 170.989 106.095C172.556 108.08 174.784 109.359 177.371 110.106L179.036 104.342C177.304 103.841 176.291 103.128 175.698 102.377C175.119 101.644 174.724 100.601 174.724 99.016H168.724ZM175.328 106.369C174.572 108.913 172.704 111.064 169.163 112.712L171.693 118.152C176.407 115.96 179.724 112.639 181.079 108.079L175.328 106.369ZM169.147 112.719C166.093 114.161 162.883 114.88 159.484 114.88V120.88C163.765 120.88 167.85 119.967 171.709 118.145L169.147 112.719ZM159.484 114.88C155.948 114.88 153.63 114.369 152.236 113.639L149.452 118.953C152.089 120.335 155.532 120.88 159.484 120.88V114.88ZM152.185 113.613C150.693 112.867 149.634 111.914 148.898 110.778L143.861 114.038C145.238 116.166 147.154 117.805 149.502 118.979L152.185 113.613ZM148.846 110.7C147.609 108.913 146.788 106.014 146.788 101.608H140.788C140.788 106.61 141.695 110.911 143.913 114.116L148.846 110.7ZM146.788 101.608C146.788 99.1657 147.49 94.2161 149.033 86.5004L143.15 85.3237C141.621 92.9679 140.788 98.4823 140.788 101.608H146.788ZM149.042 86.4555L151.058 75.5115L145.157 74.4245L143.141 85.3685L149.042 86.4555ZM151.052 75.5433C152.678 67.2228 153.556 61.2367 153.556 57.832H147.556C147.556 60.5713 146.802 66.0091 145.163 74.3927L151.052 75.5433ZM153.556 57.832C153.556 54.9655 153.176 52.3391 152.064 50.3311C151.484 49.2817 150.676 48.3545 149.592 47.702C148.504 47.0465 147.302 46.768 146.092 46.768V52.768C146.37 52.768 146.47 52.8255 146.497 52.842C146.53 52.8615 146.652 52.9423 146.815 53.2369C147.191 53.9169 147.556 55.3225 147.556 57.832H153.556ZM146.092 46.768C140.529 46.768 136.69 50.9315 134.128 56.771L139.623 59.181C141.862 54.0765 144.166 52.768 146.092 52.768V46.768ZM134.145 56.7346C133.067 59.1055 132.194 61.9693 131.493 65.2735L137.362 66.5185C138.006 63.4867 138.765 61.0705 139.607 59.2174L134.145 56.7346ZM131.486 65.3093L121.694 114.413L127.578 115.587L137.37 66.4827L131.486 65.3093ZM124.339 112.015L95.3947 114.895L95.9888 120.865L124.933 117.985L124.339 112.015ZM98.6358 118.457L118.94 14.7765L113.052 13.6234L92.7477 117.303L98.6358 118.457ZM116.293 17.1853L145.237 14.3053L144.643 8.33474L115.699 11.2147L116.293 17.1853ZM141.998 10.7316L140.846 16.4916L146.729 17.6683L147.882 11.9083L141.998 10.7316ZM140.836 16.5433C138.141 31.3661 135.698 40.8899 133.576 45.4868L139.024 48.0012C141.51 42.6141 144.058 32.3619 146.739 17.6167L140.836 16.5433ZM138.421 48.8653C143.08 44.2066 149.854 41.68 159.196 41.68V35.68C148.761 35.68 140.272 38.5294 134.178 44.6227L138.421 48.8653ZM159.196 41.68C164.142 41.68 167.739 42.504 170.226 43.8916C172.613 45.224 174.133 47.1568 174.881 49.8509L180.662 48.2451C179.491 44.0272 176.955 40.776 173.15 38.6524C169.444 36.584 164.713 35.68 159.196 35.68V41.68ZM174.902 49.9215C175.504 51.9016 175.78 53.6687 175.78 55.24H181.78C181.78 52.9713 181.383 50.6104 180.642 48.1745L174.902 49.9215ZM175.78 55.24C175.78 57.0638 175.688 58.6645 175.515 60.0519L181.469 60.7961C181.679 59.1115 181.78 57.2562 181.78 55.24H175.78ZM175.498 60.2244C175.414 61.497 175.149 63.4317 174.674 66.0886L180.581 67.1434C181.067 64.4243 181.378 62.2309 181.485 60.6236L175.498 60.2244ZM174.675 66.0829L172.803 76.451L178.708 77.5171L180.58 67.149L174.675 66.0829ZM172.816 76.3857L169.504 92.6576L175.383 93.8543L178.695 77.5824L172.816 76.3857ZM169.512 92.6187C169.003 94.9625 168.724 97.1057 168.724 99.016H174.724C174.724 97.6623 174.925 95.9655 175.375 93.8933L169.512 92.6187ZM248.174 90.664L249.861 88.1832L247.249 86.4071L245.61 89.1071L248.174 90.664ZM249.038 107.368L251.39 109.23L249.038 107.368ZM241.838 113.128L243.213 115.794L243.214 115.794L241.838 113.128ZM206.846 115.72L205.793 118.529L205.804 118.533L205.816 118.537L206.846 115.72ZM197.198 109.528L199.358 107.446L199.339 107.426L199.32 107.407L197.198 109.528ZM201.374 52.936L203.614 54.9321L203.616 54.9291L201.374 52.936ZM256.526 44.44L258.479 42.1622L258.471 42.1554L256.526 44.44ZM217.79 81.16V78.16H215.216L214.825 80.7038L217.79 81.16ZM220.094 97.288L218.087 99.5179L218.146 99.5704L218.207 99.6197L220.094 97.288ZM239.822 97.288L240.996 100.049L241.012 100.042L241.028 100.035L239.822 97.288ZM218.798 74.968L215.846 74.4336L215.206 77.968H218.798V74.968ZM234.926 68.632L232.78 66.5364L232.755 66.5613L232.731 66.5868L234.926 68.632ZM239.534 47.896L236.979 49.4683L237.052 49.5857L237.134 49.696L239.534 47.896ZM231.326 47.032L232.508 49.7894L232.552 49.7707L232.595 49.7505L231.326 47.032ZM227.15 51.064L229.562 52.8485L229.596 52.8019L229.629 52.754L227.15 51.064ZM246.487 93.1448C247.854 94.0739 248.774 95.6416 248.774 98.584H254.774C254.774 94.2304 253.295 90.5181 249.861 88.1832L246.487 93.1448ZM248.774 98.584C248.774 101.606 248.008 103.836 246.686 105.506L251.39 109.23C253.716 106.292 254.774 102.666 254.774 98.584H248.774ZM246.686 105.506C245.161 107.432 243.112 109.094 240.462 110.462L243.214 115.794C246.516 114.09 249.267 111.912 251.39 109.23L246.686 105.506ZM240.463 110.462C234.725 113.42 228.811 114.88 222.686 114.88V120.88C229.81 120.88 236.663 119.172 243.213 115.794L240.463 110.462ZM222.686 114.88C216.234 114.88 211.348 114.172 207.877 112.903L205.816 118.537C210.217 120.148 215.891 120.88 222.686 120.88V114.88ZM207.9 112.911C204.436 111.612 201.61 109.782 199.358 107.446L195.039 111.61C197.97 114.65 201.576 116.948 205.793 118.529L207.9 112.911ZM199.32 107.407C194.946 103.033 192.566 96.6887 192.566 87.928H186.566C186.566 97.7913 189.274 105.847 195.077 111.649L199.32 107.407ZM192.566 87.928C192.566 73.9948 196.336 63.0977 203.614 54.9321L199.135 50.9399C190.669 60.4383 186.566 72.8692 186.566 87.928H192.566ZM203.616 54.9291C211.404 46.1676 222.1 41.68 236.078 41.68V35.68C220.68 35.68 208.24 40.6964 199.132 50.9429L203.616 54.9291ZM236.078 41.68C244.853 41.68 250.839 43.5388 254.582 46.7246L258.471 42.1554C253.19 37.6612 245.544 35.68 236.078 35.68V41.68ZM254.574 46.7178C257.223 48.9882 258.566 51.925 258.566 55.816H264.566C264.566 50.299 262.55 45.6518 258.479 42.1622L254.574 46.7178ZM258.566 55.816C258.566 63.1962 255.486 68.5415 249.119 72.2277C242.503 76.0584 232.191 78.16 217.79 78.16V84.16C232.573 84.16 244.15 82.0376 252.125 77.4203C260.35 72.6585 264.566 65.3318 264.566 55.816H258.566ZM214.825 80.7038C214.422 83.3225 214.214 85.7812 214.214 88.072H220.214C220.214 86.1388 220.39 83.9895 220.755 81.6162L214.825 80.7038ZM214.214 88.072C214.214 92.765 215.207 96.9259 218.087 99.5179L222.101 95.0581C221.141 94.1941 220.214 92.211 220.214 88.072H214.214ZM218.207 99.6197C220.937 101.83 224.53 102.736 228.59 102.736V96.736C225.355 96.736 223.284 96.01 221.982 94.9563L218.207 99.6197ZM228.59 102.736C232.695 102.736 236.838 101.816 240.996 100.049L238.649 94.527C235.127 96.0238 231.781 96.736 228.59 96.736V102.736ZM241.028 100.035C245.326 98.148 248.689 95.5974 250.739 92.2209L245.61 89.1071C244.396 91.1066 242.19 92.972 238.616 94.5411L241.028 100.035ZM218.798 77.968C226.283 77.968 232.515 75.6203 237.121 70.6772L232.731 66.5868C229.465 70.0917 224.945 71.968 218.798 71.968V77.968ZM237.073 70.7276C241.634 66.0548 243.83 60.0311 243.83 52.936H237.83C237.83 58.7049 236.09 63.1451 232.78 66.5364L237.073 70.7276ZM243.83 52.936C243.83 50.4051 243.346 47.9786 241.934 46.096L237.134 49.696C237.45 50.1174 237.83 51.0509 237.83 52.936H243.83ZM242.089 46.3237C240.705 44.0744 238.467 43.024 235.934 43.024V49.024C236.666 49.024 236.827 49.2216 236.979 49.4683L242.089 46.3237ZM235.934 43.024C233.876 43.024 231.906 43.451 230.058 44.3134L232.595 49.7505C233.627 49.269 234.728 49.024 235.934 49.024V43.024ZM230.144 44.2746C228.013 45.1879 226.222 47.0994 224.672 49.374L229.629 52.754C230.958 50.8046 231.951 50.0281 232.508 49.7894L230.144 44.2746ZM224.739 49.2795C220.765 54.6499 217.883 63.1803 215.846 74.4336L221.75 75.5024C223.745 64.4837 226.432 57.0781 229.562 52.8485L224.739 49.2795ZM324.815 90.664L326.502 88.1832L323.89 86.4071L322.251 89.1071L324.815 90.664ZM325.679 107.368L328.031 109.23L325.679 107.368ZM318.479 113.128L319.854 115.794L319.855 115.794L318.479 113.128ZM283.487 115.72L282.434 118.529L282.445 118.533L282.456 118.537L283.487 115.72ZM273.839 109.528L275.998 107.446L275.979 107.426L275.96 107.407L273.839 109.528ZM278.015 52.936L280.254 54.9321L280.257 54.9291L278.015 52.936ZM333.167 44.44L335.119 42.1622L335.111 42.1554L333.167 44.44ZM294.431 81.16V78.16H291.857L291.466 80.7038L294.431 81.16ZM296.735 97.288L294.728 99.5179L294.786 99.5704L294.847 99.6197L296.735 97.288ZM316.463 97.288L317.636 100.049L317.653 100.042L317.669 100.035L316.463 97.288ZM295.439 74.968L292.487 74.4336L291.847 77.968H295.439V74.968ZM311.567 68.632L309.42 66.5364L309.396 66.5613L309.372 66.5868L311.567 68.632ZM316.175 47.896L313.62 49.4683L313.692 49.5857L313.775 49.696L316.175 47.896ZM307.967 47.032L309.149 49.7894L309.192 49.7707L309.236 49.7505L307.967 47.032ZM303.791 51.064L306.202 52.8485L306.237 52.8019L306.27 52.754L303.791 51.064ZM323.128 93.1448C324.494 94.0739 325.415 95.6416 325.415 98.584H331.415C331.415 94.2304 329.935 90.5181 326.502 88.1832L323.128 93.1448ZM325.415 98.584C325.415 101.606 324.649 103.836 323.327 105.506L328.031 109.23C330.357 106.292 331.415 102.666 331.415 98.584H325.415ZM323.327 105.506C321.802 107.432 319.753 109.094 317.103 110.462L319.855 115.794C323.157 114.09 325.908 111.912 328.031 109.23L323.327 105.506ZM317.104 110.462C311.366 113.42 305.451 114.88 299.327 114.88V120.88C306.45 120.88 313.304 119.172 319.854 115.794L317.104 110.462ZM299.327 114.88C292.875 114.88 287.989 114.172 284.518 112.903L282.456 118.537C286.857 120.148 292.531 120.88 299.327 120.88V114.88ZM284.54 112.911C281.077 111.612 278.251 109.782 275.998 107.446L271.679 111.61C274.611 114.65 278.217 116.948 282.434 118.529L284.54 112.911ZM275.96 107.407C271.587 103.033 269.207 96.6887 269.207 87.928H263.207C263.207 97.7913 265.915 105.847 271.718 111.649L275.96 107.407ZM269.207 87.928C269.207 73.9948 272.976 63.0977 280.254 54.9321L275.775 50.9399C267.309 60.4383 263.207 72.8692 263.207 87.928H269.207ZM280.257 54.9291C288.045 46.1676 298.741 41.68 312.719 41.68V35.68C297.321 35.68 284.881 40.6964 275.773 50.9429L280.257 54.9291ZM312.719 41.68C321.494 41.68 327.479 43.5388 331.223 46.7246L335.111 42.1554C329.831 37.6612 322.184 35.68 312.719 35.68V41.68ZM331.215 46.7178C333.863 48.9882 335.207 51.925 335.207 55.816H341.207C341.207 50.299 339.19 45.6518 335.119 42.1622L331.215 46.7178ZM335.207 55.816C335.207 63.1962 332.127 68.5415 325.76 72.2277C319.143 76.0584 308.832 78.16 294.431 78.16V84.16C309.214 84.16 320.791 82.0376 328.766 77.4203C336.991 72.6585 341.207 65.3318 341.207 55.816H335.207ZM291.466 80.7038C291.063 83.3225 290.855 85.7812 290.855 88.072H296.855C296.855 86.1388 297.031 83.9895 297.396 81.6162L291.466 80.7038ZM290.855 88.072C290.855 92.765 291.848 96.9259 294.728 99.5179L298.742 95.0581C297.782 94.1941 296.855 92.211 296.855 88.072H290.855ZM294.847 99.6197C297.578 101.83 301.17 102.736 305.231 102.736V96.736C301.995 96.736 299.924 96.01 298.622 94.9563L294.847 99.6197ZM305.231 102.736C309.336 102.736 313.478 101.816 317.636 100.049L315.289 94.527C311.768 96.0238 308.422 96.736 305.231 96.736V102.736ZM317.669 100.035C321.967 98.148 325.329 95.5974 327.379 92.2209L322.251 89.1071C321.036 91.1066 318.831 92.972 315.257 94.5411L317.669 100.035ZM295.439 77.968C302.924 77.968 309.156 75.6203 313.762 70.6772L309.372 66.5868C306.106 70.0917 301.586 71.968 295.439 71.968V77.968ZM313.714 70.7276C318.275 66.0548 320.471 60.0311 320.471 52.936H314.471C314.471 58.7049 312.731 63.1451 309.42 66.5364L313.714 70.7276ZM320.471 52.936C320.471 50.4051 319.987 47.9786 318.575 46.096L313.775 49.696C314.091 50.1174 314.471 51.0509 314.471 52.936H320.471ZM318.73 46.3237C317.346 44.0744 315.107 43.024 312.575 43.024V49.024C313.306 49.024 313.468 49.2216 313.62 49.4683L318.73 46.3237ZM312.575 43.024C310.517 43.024 308.546 43.451 306.698 44.3134L309.236 49.7505C310.267 49.269 311.369 49.024 312.575 49.024V43.024ZM306.785 44.2746C304.654 45.1879 302.863 47.0994 301.312 49.374L306.27 52.754C307.599 50.8046 308.592 50.0281 309.149 49.7894L306.785 44.2746ZM301.379 49.2795C297.405 54.6499 294.524 63.1803 292.487 74.4336L298.391 75.5024C300.386 64.4837 303.073 57.0781 306.202 52.8485L301.379 49.2795ZM388.207 74.536L385.593 73.0652L384.477 75.0484L386.086 76.6573L388.207 74.536ZM381.871 55.672L384.405 57.2786L384.419 57.2563L384.433 57.2338L381.871 55.672ZM376.975 69.208L379.936 69.6921L379.939 69.674L379.942 69.6558L376.975 69.208ZM369.487 115L369.776 117.986L372.075 117.764L372.448 115.484L369.487 115ZM339.68 117.88L336.734 117.313L335.976 121.252L339.968 120.866L339.68 117.88ZM354.367 41.56L354.007 38.5818L351.835 38.845L351.422 40.993L354.367 41.56ZM378.128 38.68L381.081 39.2064L381.793 35.2138L377.767 35.7018L378.128 38.68ZM375.535 53.224L372.582 52.6976L378.235 54.5335L375.535 53.224ZM411.247 43L409.161 45.1558L409.178 45.1723L409.196 45.1886L411.247 43ZM409.952 70.648L407.884 68.4743L407.87 68.4871L407.857 68.5L409.952 70.648ZM390.822 76.0068C394.497 69.473 396.392 62.7792 396.392 55.96H390.392C390.392 61.6208 388.829 67.311 385.593 73.0652L390.822 76.0068ZM396.392 55.96C396.392 53.6254 395.987 51.3341 394.709 49.5616C393.3 47.6074 391.193 46.768 388.927 46.768V52.768C389.326 52.768 389.532 52.8367 389.621 52.878C389.695 52.9118 389.761 52.9577 389.842 53.0704C390.052 53.3619 390.392 54.1665 390.392 55.96H396.392ZM388.927 46.768C386.868 46.768 385.046 47.6581 383.51 48.9432C381.991 50.2146 380.604 51.9888 379.31 54.1102L384.433 57.2338C385.539 55.4191 386.528 54.2414 387.361 53.5448C388.177 52.8618 388.683 52.768 388.927 52.768V46.768ZM379.338 54.0654C376.596 58.3885 374.833 63.3032 374.009 68.7602L379.942 69.6558C380.654 64.9368 382.155 60.8275 384.405 57.2786L379.338 54.0654ZM374.015 68.7239L366.527 114.516L372.448 115.484L379.936 69.6921L374.015 68.7239ZM369.199 112.014L339.391 114.894L339.968 120.866L369.776 117.986L369.199 112.014ZM342.625 118.447L357.313 42.1269L351.422 40.993L336.734 117.313L342.625 118.447ZM354.728 44.5382L378.488 41.6582L377.767 35.7018L354.007 38.5818L354.728 44.5382ZM375.174 38.1536L372.582 52.6976L378.489 53.7504L381.081 39.2064L375.174 38.1536ZM378.235 54.5335C380.391 50.0894 383.133 46.9208 386.396 44.8483C389.655 42.7781 393.624 41.68 398.432 41.68V35.68C392.679 35.68 387.552 37.0059 383.179 39.7837C378.81 42.5592 375.384 46.6626 372.836 51.9145L378.235 54.5335ZM398.432 41.68C403.496 41.68 406.915 42.9823 409.161 45.1558L413.334 40.8442C409.628 37.2577 404.503 35.68 398.432 35.68V41.68ZM409.196 45.1886C411.447 47.2997 412.855 50.775 412.855 56.248H418.855C418.855 49.817 417.192 44.4603 413.299 40.8114L409.196 45.1886ZM412.855 56.248C412.855 61.3537 411.175 65.344 407.884 68.4743L412.019 72.8217C416.6 68.464 418.855 62.8543 418.855 56.248H412.855ZM407.857 68.5C404.703 71.5756 400.291 73.264 394.255 73.264V79.264C401.468 79.264 407.52 77.2084 412.046 72.796L407.857 68.5ZM394.255 73.264C391.609 73.264 390.617 72.7029 390.329 72.4147L386.086 76.6573C388.102 78.6731 391.142 79.264 394.255 79.264V73.264ZM461.285 64.456L458.479 63.3943L457.647 65.5951L459.586 66.9281L461.285 64.456ZM449.765 49.336L447.55 47.3132L447.545 47.318L449.765 49.336ZM449.189 61.72L447.068 63.8413L447.091 63.8649L447.116 63.8879L449.189 61.72ZM460.997 70.072L459.435 72.6329L460.997 70.072ZM472.661 79.576L470.242 81.3501L470.276 81.3958L470.311 81.4402L472.661 79.576ZM473.093 100.744L470.454 99.3175L470.439 99.3454L470.425 99.3736L473.093 100.744ZM465.317 109.816L463.528 107.408L463.522 107.412L465.317 109.816ZM420.677 112.984L422.364 110.503L422.347 110.492L422.33 110.48L420.677 112.984ZM417.509 93.688L415.645 91.3375L415.625 91.3535L415.605 91.3698L417.509 93.688ZM437.525 92.68L440.316 93.7796L441.237 91.4419L439.098 90.125L437.525 92.68ZM449.477 107.944L451.529 110.133L449.477 107.944ZM439.397 86.92L437.75 89.4271L437.776 89.4442L437.802 89.4607L439.397 86.92ZM427.013 77.704L424.72 79.6386L424.745 79.6682L424.771 79.6971L427.013 77.704ZM425.861 56.104L428.545 57.4456L425.861 56.104ZM433.637 46.744L431.811 44.3637L431.805 44.3686L433.637 46.744ZM477.269 42.424L475.575 44.8999L475.59 44.9101L475.605 44.9202L477.269 42.424ZM478.997 62.44L476.959 60.2387L476.938 60.2579L476.918 60.2775L478.997 62.44ZM464.091 65.5177C465.534 61.7038 466.301 58.0291 466.301 54.52H460.301C460.301 57.1549 459.724 60.1042 458.479 63.3943L464.091 65.5177ZM466.301 54.52C466.301 51.3585 465.671 48.4307 463.9 46.2547C462.034 43.9603 459.338 43.024 456.389 43.024V49.024C458.048 49.024 458.809 49.5036 459.246 50.0413C459.78 50.6973 460.301 52.0175 460.301 54.52H466.301ZM456.389 43.024C452.947 43.024 449.984 44.6468 447.55 47.3132L451.981 51.3588C453.578 49.6091 455.031 49.024 456.389 49.024V43.024ZM447.545 47.318C445.157 49.9448 443.885 53.0527 443.885 56.536H449.885C449.885 54.6433 450.533 52.9512 451.985 51.354L447.545 47.318ZM443.885 56.536C443.885 59.3587 445.05 61.8233 447.068 63.8413L451.311 59.5987C450.257 58.5447 449.885 57.5533 449.885 56.536H443.885ZM447.116 63.8879C449.574 66.2394 453.749 69.1637 459.435 72.6329L462.56 67.5111C456.918 64.0683 453.221 61.4246 451.263 59.5521L447.116 63.8879ZM459.435 72.6329C465.002 76.0296 468.483 78.9512 470.242 81.3501L475.08 77.8019C472.616 74.4408 468.321 71.0264 462.56 67.5111L459.435 72.6329ZM470.311 81.4402C472.052 83.6363 472.973 86.3195 472.973 89.656H478.973C478.973 85.1205 477.686 81.0837 475.012 77.7118L470.311 81.4402ZM472.973 89.656C472.973 92.972 472.15 96.1803 470.454 99.3175L475.732 102.171C477.877 98.2037 478.973 94.02 478.973 89.656H472.973ZM470.425 99.3736C468.821 102.497 466.538 105.172 463.528 107.408L467.106 112.224C470.817 109.468 473.718 106.095 475.762 102.114L470.425 99.3736ZM463.522 107.412C456.971 112.304 448.294 114.88 437.237 114.88V120.88C449.221 120.88 459.264 118.08 467.112 112.22L463.522 107.412ZM437.237 114.88C431.552 114.88 426.629 113.403 422.364 110.503L418.99 115.465C424.326 119.093 430.443 120.88 437.237 120.88V114.88ZM422.33 110.48C417.897 107.555 416.477 104.893 416.477 102.616H410.477C410.477 107.827 413.857 112.077 419.025 115.488L422.33 110.48ZM416.477 102.616C416.477 99.6915 417.477 97.5965 419.413 96.0062L415.605 91.3698C412.165 94.1955 410.477 98.0525 410.477 102.616H416.477ZM419.373 96.0385C421.556 94.3071 424.282 93.376 427.733 93.376V87.376C423.12 87.376 419.03 88.6529 415.645 91.3375L419.373 96.0385ZM427.733 93.376C431.411 93.376 434.076 94.0797 435.953 95.235L439.098 90.125C435.983 88.2083 432.12 87.376 427.733 87.376V93.376ZM434.734 91.5804C433.422 94.9105 432.653 97.9518 432.653 100.6H438.653C438.653 99.0242 439.132 96.7855 440.316 93.7796L434.734 91.5804ZM432.653 100.6C432.653 104.121 433.39 107.321 435.382 109.669C437.454 112.111 440.426 113.104 443.717 113.104V107.104C441.633 107.104 440.573 106.513 439.957 105.787C439.261 104.967 438.653 103.415 438.653 100.6H432.653ZM443.717 113.104C446.705 113.104 449.382 112.145 451.529 110.133L447.425 105.755C446.5 106.623 445.337 107.104 443.717 107.104V113.104ZM451.529 110.133C453.782 108.021 454.781 105.198 454.781 102.04H448.781C448.781 103.874 448.245 104.987 447.425 105.755L451.529 110.133ZM454.781 102.04C454.781 98.6992 453.363 95.5651 451.006 92.6871C448.661 89.8243 445.273 87.067 440.993 84.3793L437.802 89.4607C441.778 91.957 444.581 94.3117 446.364 96.4889C448.135 98.6509 448.781 100.485 448.781 102.04H454.781ZM441.045 84.4129C437.71 82.2213 435.051 80.3848 433.052 78.8973C431.003 77.3722 429.803 76.3272 429.255 75.7109L424.771 79.6971C425.759 80.8088 427.392 82.1638 429.47 83.7107C431.599 85.2952 434.365 87.2027 437.75 89.4271L441.045 84.4129ZM429.306 75.7694C427.148 73.2111 426.125 70.4328 426.125 67.336H420.125C420.125 71.9192 421.695 76.0529 424.72 79.6386L429.306 75.7694ZM426.125 67.336C426.125 63.9905 426.916 60.7036 428.545 57.4456L423.178 54.7624C421.159 58.8004 420.125 63.0015 420.125 67.336H426.125ZM428.545 57.4456C430.158 54.2184 432.453 51.4468 435.47 49.1193L431.805 44.3686C428.102 47.2252 425.212 50.6936 423.178 54.7624L428.545 57.4456ZM435.463 49.1243C441.78 44.2783 450.659 41.68 462.437 41.68V35.68C449.832 35.68 439.51 38.4577 431.811 44.3637L435.463 49.1243ZM462.437 41.68C468.312 41.68 472.593 42.8594 475.575 44.8999L478.963 39.9481C474.65 36.9966 469.042 35.68 462.437 35.68V41.68ZM475.605 44.9202C478.579 46.903 479.885 49.3586 479.885 52.504H485.885C485.885 47.2014 483.447 42.937 478.933 39.9278L475.605 44.9202ZM479.885 52.504C479.885 56.0698 478.819 58.5168 476.959 60.2387L481.035 64.6413C484.36 61.5632 485.885 57.3862 485.885 52.504H479.885ZM476.918 60.2775C475.146 61.9817 472.438 63.04 468.341 63.04V69.04C473.461 69.04 477.857 67.6983 481.077 64.6025L476.918 60.2775ZM468.341 63.04C465.401 63.04 463.78 62.5303 462.985 61.9839L459.586 66.9281C461.863 68.4937 464.946 69.04 468.341 69.04V63.04Z" fill="white"/>
</g>
<defs>
<filter id="filter0_d" x="0.175781" y="0.933594" width="492.709" height="127.331" filterUnits="userSpaceOnUse" color-interpolation-filters="sRGB">
<feFlood flood-opacity="0" result="BackgroundImageFix"/>
<feColorMatrix in="SourceAlpha" type="matrix" values="0 0 0 0 0 0 0 0 0 0 0 0 0 0 0 0 0 0 127 0" result="hardAlpha"/>
<feOffset/>
<feGaussianBlur stdDeviation="3.5"/>
<feComposite in2="hardAlpha" operator="out"/>
<feColorMatrix type="matrix" values="0 0 0 0 0 0 0 0 0 0 0 0 0 0 0 0 0 0 0.25 0"/>
<feBlend mode="normal" in2="BackgroundImageFix" result="effect1_dropShadow"/>
<feBlend mode="normal" in="SourceGraphic" in2="effect1_dropShadow" result="shape"/>
</filter>
</defs>
</svg>
